<?xml version="1.0" encoding="UTF-8" standalone="no"?>
<!-- Created with Inkscape (http://www.inkscape.org/) -->

<svg
   width="1000"
   height="1000"
   viewBox="0 0 264.58333 264.58334"
   version="1.1"
   id="svg5"
   xmlns="http://www.w3.org/2000/svg"
   xmlns:svg="http://www.w3.org/2000/svg">
  <defs
     id="defs2" />
  <g
     id="layer1">
    <path
       id="path846"
       style="fill:#0070c7;stroke-width:0.740833;stroke-linecap:square;stroke-miterlimit:10"
       d="m 79.375001,54.570312 v 19.84375 3.307291 6.614584 86.324443 A 23.151041,23.151041 0 0 0 62.838543,163.71093 23.151041,23.151041 0 0 0 39.687502,186.86198 23.151041,23.151041 0 0 0 62.838543,210.01302 23.151041,23.151041 0 0 0 85.98958,186.86198 V 84.335937 h 92.60417 v 86.324443 a 23.151041,23.151041 0 0 0 -16.53646,-6.94945 23.151041,23.151041 0 0 0 -23.15104,23.15105 23.151041,23.151041 0 0 0 23.15104,23.15104 23.151041,23.151041 0 0 0 23.15104,-23.15104 V 54.570312 Z m 6.614579,19.84375 h 92.60417 v 3.307291 H 85.98958 Z" />
  </g>
</svg>
