<?xml version="1.0" encoding="UTF-8" standalone="no"?>
<!-- Created with Inkscape (http://www.inkscape.org/) -->

<svg
   xmlns:dc="http://purl.org/dc/elements/1.1/"
   xmlns:cc="http://creativecommons.org/ns#"
   xmlns:rdf="http://www.w3.org/1999/02/22-rdf-syntax-ns#"
   xmlns:svg="http://www.w3.org/2000/svg"
   xmlns="http://www.w3.org/2000/svg"
   xmlns:sodipodi="http://sodipodi.sourceforge.net/DTD/sodipodi-0.dtd"
   xmlns:inkscape="http://www.inkscape.org/namespaces/inkscape"
   width="526.99109mm"
   height="155.98265mm"
   viewBox="0 0 526.99109 155.98265"
   version="1.1"
   id="svg1063"
   inkscape:version="0.92.4 (5da689c313, 2019-01-14)"
   sodipodi:docname="garycxjk.svg">
  <defs
     id="defs1057" />
  <sodipodi:namedview
     id="base"
     pagecolor="#ffffff"
     bordercolor="#666666"
     borderopacity="1.0"
     inkscape:pageopacity="0.0"
     inkscape:pageshadow="2"
     inkscape:zoom="0.35"
     inkscape:cx="818.74578"
     inkscape:cy="-276.65821"
     inkscape:document-units="mm"
     inkscape:current-layer="layer1"
     showgrid="false"
     fit-margin-top="0"
     fit-margin-left="0"
     fit-margin-right="0"
     fit-margin-bottom="0"
     inkscape:window-width="1920"
     inkscape:window-height="1001"
     inkscape:window-x="2391"
     inkscape:window-y="440"
     inkscape:window-maximized="1" />
  <metadata
     id="metadata1060">
    <rdf:RDF>
      <cc:Work
         rdf:about="">
        <dc:format>image/svg+xml</dc:format>
        <dc:type
           rdf:resource="http://purl.org/dc/dcmitype/StillImage" />
        <dc:title></dc:title>
      </cc:Work>
    </rdf:RDF>
  </metadata>
  <g
     inkscape:label="Laag 1"
     inkscape:groupmode="layer"
     id="layer1"
     transform="translate(265.00744,80.348466)">
    <g
       transform="translate(85.754515,-140.08289)"
       id="layer1-4">
      <path
         inkscape:connector-curvature="0"
         id="path908"
         d="M 33.378661,59.734424 4.98556,114.7786 -15.450917,104.23712 c -9.075667,3.77821 -17.046909,8.42616 -23.236309,13.33149 l 33.358171,17.2067 -32.421277,62.85405 c 7.508487,1.59301 15.564144,2.4465 24.024889,2.50526 l 28.393094,-55.04418 20.43752,10.542 c 9.07588,-3.77792 17.04712,-8.42612 23.23631,-13.33149 l -33.35921,-17.20773 32.42128,-62.854046 c -7.50863,-1.59277 -15.56412,-2.44612 -24.02489,-2.50475 z"
         style="color:#000000;font-style:normal;font-variant:normal;font-weight:normal;font-stretch:normal;font-size:medium;line-height:normal;font-family:sans-serif;font-variant-ligatures:normal;font-variant-position:normal;font-variant-caps:normal;font-variant-numeric:normal;font-variant-alternates:normal;font-feature-settings:normal;text-indent:0;text-align:start;text-decoration:none;text-decoration-line:none;text-decoration-style:solid;text-decoration-color:#000000;letter-spacing:normal;word-spacing:normal;text-transform:none;writing-mode:lr-tb;direction:ltr;text-orientation:mixed;dominant-baseline:auto;baseline-shift:baseline;text-anchor:start;white-space:normal;shape-padding:0;clip-rule:nonzero;display:inline;overflow:visible;visibility:visible;opacity:1;isolation:auto;mix-blend-mode:normal;color-interpolation:sRGB;color-interpolation-filters:linearRGB;solid-color:#000000;solid-opacity:1;vector-effect:none;fill:#000000;fill-opacity:1;fill-rule:nonzero;stroke:none;stroke-width:20;stroke-linecap:round;stroke-linejoin:round;stroke-miterlimit:4;stroke-dasharray:none;stroke-dashoffset:0;stroke-opacity:1;color-rendering:auto;image-rendering:auto;shape-rendering:auto;text-rendering:auto;enable-background:accumulate" />
      <path
         inkscape:connector-curvature="0"
         id="path898"
         d="m 19.416721,70.441774 a 57.218961,91.793195 75.431059 0 0 -9.58908,1.13378 57.218961,91.793195 75.431059 0 0 -90.00019,72.295846 57.218961,91.793195 75.431059 0 0 39.917976,42.25168 l 8.461499,-16.40416 c -5.008181,-1.20357 -9.498917,-2.79644 -13.336653,-4.69067 -12.645628,-6.24168 -17.603576,-13.95093 -17.603576,-22.69525 0,-8.74435 5.750177,-19.69429 18.980753,-30.32219 11.396631,-9.15472 27.742327,-17.147215 46.11398,-21.318075 V 103.5059 Z m 40.49055,3.30419 -8.45995,16.401071 c 5.00905,1.20428 9.49874,2.79918 13.33717,4.693769 12.64514,6.241416 17.60151,13.952986 17.60151,22.697316 0,8.74434 -5.74933,19.69401 -18.98024,30.32219 -11.39662,9.15472 -27.74273,17.14556 -46.114488,21.316 V 156.36365 L 0.26181895,189.37714 A 57.218961,91.793195 75.431059 0 0 9.827641,188.29402 57.218961,91.793195 75.431059 0 0 99.827311,115.99816 57.218961,91.793195 75.431059 0 0 59.907271,73.745964 Z"
         style="fill:#000000;fill-opacity:1;stroke:none;stroke-width:11.16727066;stroke-linecap:round;stroke-linejoin:round;stroke-miterlimit:4;stroke-dasharray:none;stroke-dashoffset:0;stroke-opacity:1" />
    </g>
    <path
       inkscape:connector-curvature="0"
       style="opacity:1;fill:#000000;fill-opacity:1;stroke:none;stroke-width:1.74717402;stroke-linecap:round;stroke-linejoin:round;stroke-miterlimit:4;stroke-dasharray:none;stroke-dashoffset:0;stroke-opacity:0.14509804"
       d="m -56.963315,-45.973397 23.39134,71.448349 v 5.3e-4 l -16.42122,50.1587 h 20.55482 l 39.81204,-121.607579 h -20.55482 -5.67356 -4.06693 l 4.86999,14.875579 -5.40691,16.516821 -2.83652,8.6645881 -13.11393,-40.0569881 z"
       id="rect1445" />
    <path
       style="opacity:1;fill:#000000;fill-opacity:1;stroke:none;stroke-width:2.0864346;stroke-linecap:round;stroke-linejoin:round;stroke-miterlimit:4;stroke-dasharray:none;stroke-dashoffset:0;stroke-opacity:0.14509804"
       d="m 177.28443,-71.187958 12.27418,17.748266 v 64.41985 10.583324 h 20.55428 V 10.980158 l 11.99875,-17.3498719 19.31768,27.9331959 h 20.55432 l -29.5951,-42.793254 17.11213,-24.743712 h -20.55428 l -18.8335,27.23243 v -52.446904 h -20.55428 z"
       id="rect1479"
       inkscape:connector-curvature="0" />
    <path
       style="opacity:1;fill:#000000;fill-opacity:1;stroke:none;stroke-width:1.46676314;stroke-linecap:round;stroke-linejoin:round;stroke-miterlimit:4;stroke-dasharray:none;stroke-dashoffset:0;stroke-opacity:0.14509804"
       d="m -220.2107,-66.837757 a 44.796501,44.796501 0 0 0 -44.79674,44.796235 44.796501,44.796501 0 0 0 44.79674,44.796754 44.796501,44.796501 0 0 0 33.44447,-15.0771239 v -26.3534311 -10.78642 h -1.50999 -19.04431 -16.89768 v 20.5542991 h 16.89768 v 6.179471 a 23.251856,23.251856 0 0 1 -12.89017,3.938259 23.251856,23.251856 0 0 1 -23.25181,-23.2518081 23.251856,23.251856 0 0 1 23.25181,-23.251811 23.251856,23.251856 0 0 1 18.25832,8.877491 l 14.0317,-16.538012 a 44.796501,44.796501 0 0 0 -32.29002,-13.883903 z"
       id="path830"
       inkscape:connector-curvature="0" />
    <path
       style="opacity:1;fill:#000000;fill-opacity:1;stroke:none;stroke-width:1.3401736;stroke-linecap:round;stroke-linejoin:round;stroke-miterlimit:4;stroke-dasharray:none;stroke-dashoffset:0;stroke-opacity:0.14509804"
       d="m -110.0261,-45.973783 v 67.537475 h 20.554285 v -34.527606 a 15.282667,15.282667 0 0 1 15.1567,-13.428638 15.282667,15.282667 0 0 1 4.94906,0.840779 l 7.94525,-17.93586 a 34.863588,34.863588 0 0 0 -12.89431,-2.48615 34.863588,34.863588 0 0 0 -15.1567,3.515551 v -3.515551 z"
       id="path944"
       inkscape:connector-curvature="0" />
    <path
       style="opacity:1;fill:#000000;fill-opacity:1;stroke:none;stroke-width:1.20422614;stroke-linecap:round;stroke-linejoin:round;stroke-miterlimit:4;stroke-dasharray:none;stroke-dashoffset:0;stroke-opacity:0.14509804"
       d="m -148.3943,-45.973772 c -8.12463,0 -16.16291,2.957428 -22.0126,7.693049 l 9.07179,13.19353 c 1.79059,-3.557141 6.11994,-6.071479 10.82415,-6.071479 6.16659,2.9e-5 12.5218,4.3189 12.52223,9.646449 h -10.66343 -10.58333 c -8.34595,-1.3e-4 -15.87014,5.249119 -19.06396,13.2999691 -3.19377,8.05071004 -1.42832,17.317482 4.47312,23.4791699 3.87184,4.035513 9.12007,6.300386 14.59084,6.296776 h 10.58333 c 2.7088,0.004 5.39189,-0.54862 7.89616,-1.62676 0.95709,-0.423636 1.88214,-0.922185 2.76727,-1.491386 v 3.118146 h 20.55431 v -43.075415 c 0,-1.61e-4 0,-2.64e-4 0,-5.29e-4 -5.3e-4,-13.509569 -15.32279,-24.46152 -30.95988,-24.461549 z m -1.16065,38.0193791 h 3.92121 7.64501 v 7.98245004 c -5e-5,3.22860996 -1.86278,6.13929096 -4.71961,7.37473096 -0.9278,0.399388 -1.92184,0.604128 -2.9254,0.60257 h -3.92121 c -2.02686,0.003 -3.97131,-0.83765 -5.40587,-2.332681 -2.18651,-2.282949 -2.8406,-5.71636996 -1.65726,-8.699211 1.18326,-2.982878 3.97094,-4.927809 7.06313,-4.927859 z"
       id="path1002"
       inkscape:connector-curvature="0" />
  </g>
</svg>
